<svg width="551" height="139" viewBox="0 0 551 139" fill="none" xmlns="http://www.w3.org/2000/svg">
<path d="M0 0H551V109H0V0Z" fill="#E03E1A"/>
<path d="M143.821 34.3981H150.784V56.3016C150.784 59.1654 150.532 61.3684 150.029 62.9104C149.352 64.9246 148.125 66.5453 146.347 67.7726C144.569 68.9843 142.224 69.5901 139.313 69.5901C135.899 69.5901 133.271 68.6381 131.43 66.7341C129.589 64.8144 128.66 62.0057 128.645 58.3079L135.23 57.5526C135.309 59.5352 135.6 60.9357 136.103 61.7539C136.858 62.997 138.007 63.6185 139.549 63.6185C141.107 63.6185 142.208 63.1779 142.854 62.2968C143.499 61.3999 143.821 59.551 143.821 56.7501V34.3981ZM155.695 56.1128C155.695 53.9099 156.237 51.7777 157.323 49.7164C158.409 47.6551 159.943 46.0815 161.926 44.9958C163.924 43.9101 166.151 43.3672 168.605 43.3672C172.398 43.3672 175.505 44.6024 177.929 47.0729C180.352 49.5276 181.563 52.6353 181.563 56.396C181.563 60.1882 180.336 63.3353 177.881 65.8372C175.442 68.3234 172.366 69.5665 168.653 69.5665C166.355 69.5665 164.16 69.0472 162.067 68.0087C159.99 66.9701 158.409 65.4517 157.323 63.4533C156.237 61.4392 155.695 58.9924 155.695 56.1128ZM162.492 56.4668C162.492 58.953 163.082 60.857 164.262 62.1788C165.443 63.5005 166.898 64.1614 168.629 64.1614C170.36 64.1614 171.807 63.5005 172.972 62.1788C174.152 60.857 174.742 58.9373 174.742 56.4196C174.742 53.9649 174.152 52.0767 172.972 50.7549C171.807 49.4332 170.36 48.7723 168.629 48.7723C166.898 48.7723 165.443 49.4332 164.262 50.7549C163.082 52.0767 162.492 53.9807 162.492 56.4668ZM185.199 70.6522L192.776 71.5727C192.902 72.4539 193.193 73.0597 193.649 73.3901C194.278 73.8622 195.27 74.0982 196.623 74.0982C198.354 74.0982 199.652 73.8386 200.517 73.3193C201.1 72.9732 201.54 72.4146 201.839 71.6435C202.044 71.0928 202.146 70.0779 202.146 68.5988V64.9403C200.163 67.6468 197.662 69 194.64 69C191.273 69 188.606 67.576 186.639 64.7279C185.097 62.4777 184.326 59.6768 184.326 56.3252C184.326 52.1239 185.333 48.9139 187.347 46.6952C189.377 44.4765 191.895 43.3672 194.9 43.3672C198 43.3672 200.557 44.7283 202.571 47.4505V43.9337H208.779V66.4273C208.779 69.3855 208.535 71.5963 208.047 73.0597C207.559 74.5231 206.875 75.6718 205.993 76.5057C205.112 77.3397 203.932 77.9927 202.453 78.4648C200.99 78.9368 199.133 79.1729 196.883 79.1729C192.634 79.1729 189.621 78.4412 187.843 76.9778C186.065 75.5301 185.176 73.6891 185.176 71.4547C185.176 71.2344 185.183 70.9669 185.199 70.6522ZM191.124 55.9476C191.124 58.6068 191.635 60.558 192.658 61.8011C193.696 63.0285 194.971 63.6421 196.481 63.6421C198.102 63.6421 199.471 63.0127 200.588 61.7539C201.706 60.4793 202.264 58.599 202.264 56.1128C202.264 53.5165 201.729 51.5889 200.659 50.3301C199.589 49.0713 198.236 48.4418 196.599 48.4418C195.01 48.4418 193.696 49.0634 192.658 50.3065C191.635 51.5338 191.124 53.4142 191.124 55.9476ZM212.863 56.1128C212.863 53.9099 213.406 51.7777 214.491 49.7164C215.577 47.6551 217.111 46.0815 219.094 44.9958C221.092 43.9101 223.319 43.3672 225.774 43.3672C229.566 43.3672 232.674 44.6024 235.097 47.0729C237.52 49.5276 238.732 52.6353 238.732 56.396C238.732 60.1882 237.504 63.3353 235.05 65.8372C232.611 68.3234 229.534 69.5665 225.821 69.5665C223.523 69.5665 221.328 69.0472 219.236 68.0087C217.159 66.9701 215.577 65.4517 214.491 63.4533C213.406 61.4392 212.863 58.9924 212.863 56.1128ZM219.66 56.4668C219.66 58.953 220.25 60.857 221.431 62.1788C222.611 63.5005 224.066 64.1614 225.797 64.1614C227.528 64.1614 228.976 63.5005 230.14 62.1788C231.32 60.857 231.91 58.9373 231.91 56.4196C231.91 53.9649 231.32 52.0767 230.14 50.7549C228.976 49.4332 227.528 48.7723 225.797 48.7723C224.066 48.7723 222.611 49.4332 221.431 50.7549C220.25 52.0767 219.66 53.9807 219.66 56.4668ZM278.457 69H272.297V65.3179C271.274 66.7499 270.062 67.8199 268.662 68.5279C267.277 69.2203 265.877 69.5665 264.461 69.5665C261.581 69.5665 259.111 68.4099 257.049 66.0968C255.004 63.768 253.981 60.5265 253.981 56.3724C253.981 52.1239 254.98 48.8982 256.979 46.6952C258.977 44.4765 261.502 43.3672 264.555 43.3672C267.356 43.3672 269.779 44.5316 271.825 46.8604V34.3981H278.457V69ZM260.755 55.924C260.755 58.599 261.125 60.5344 261.864 61.7303C262.934 63.4612 264.429 64.3266 266.349 64.3266C267.875 64.3266 269.173 63.6815 270.243 62.3912C271.313 61.0851 271.848 59.1418 271.848 56.5613C271.848 53.6817 271.329 51.6125 270.291 50.3537C269.252 49.0791 267.922 48.4418 266.302 48.4418C264.728 48.4418 263.406 49.0713 262.336 50.3301C261.282 51.5732 260.755 53.4378 260.755 55.924ZM282.518 56.1128C282.518 53.9099 283.061 51.7777 284.146 49.7164C285.232 47.6551 286.766 46.0815 288.749 44.9958C290.747 43.9101 292.974 43.3672 295.429 43.3672C299.221 43.3672 302.329 44.6024 304.752 47.0729C307.175 49.5276 308.387 52.6353 308.387 56.396C308.387 60.1882 307.159 63.3353 304.705 65.8372C302.266 68.3234 299.189 69.5665 295.476 69.5665C293.179 69.5665 290.983 69.0472 288.891 68.0087C286.814 66.9701 285.232 65.4517 284.146 63.4533C283.061 61.4392 282.518 58.9924 282.518 56.1128ZM289.316 56.4668C289.316 58.953 289.906 60.857 291.086 62.1788C292.266 63.5005 293.721 64.1614 295.452 64.1614C297.183 64.1614 298.631 63.5005 299.795 62.1788C300.975 60.857 301.565 58.9373 301.565 56.4196C301.565 53.9649 300.975 52.0767 299.795 50.7549C298.631 49.4332 297.183 48.7723 295.452 48.7723C293.721 48.7723 292.266 49.4332 291.086 50.7549C289.906 52.0767 289.316 53.9807 289.316 56.4668ZM325.194 34.3981H339.025C341.763 34.3981 343.801 34.5161 345.138 34.7521C346.492 34.9724 347.695 35.4445 348.75 36.1683C349.82 36.8921 350.709 37.8599 351.417 39.0715C352.125 40.2674 352.479 41.6127 352.479 43.1076C352.479 44.7283 352.038 46.2153 351.157 47.5685C350.292 48.9218 349.112 49.9367 347.617 50.6133C349.725 51.227 351.346 52.2734 352.479 53.7525C353.612 55.2316 354.178 56.9704 354.178 58.9688C354.178 60.5423 353.809 62.0765 353.069 63.5713C352.345 65.0504 351.346 66.2385 350.071 67.1354C348.813 68.0165 347.255 68.5594 345.398 68.764C344.234 68.8899 341.425 68.9685 336.972 69H325.194V34.3981ZM332.18 40.1572V48.1586H336.759C339.482 48.1586 341.173 48.1193 341.834 48.0406C343.03 47.899 343.966 47.4899 344.643 46.8132C345.335 46.1209 345.681 45.2161 345.681 44.0989C345.681 43.0289 345.382 42.1635 344.784 41.5026C344.202 40.826 343.329 40.4168 342.164 40.2752C341.472 40.1965 339.482 40.1572 336.193 40.1572H332.18ZM332.18 53.9177V63.1701H338.648C341.165 63.1701 342.762 63.0993 343.439 62.9576C344.477 62.7688 345.319 62.3125 345.964 61.5887C346.625 60.8491 346.956 59.8657 346.956 58.6383C346.956 57.5998 346.704 56.7186 346.201 55.9948C345.697 55.271 344.965 54.7438 344.005 54.4134C343.061 54.0829 341 53.9177 337.821 53.9177H332.18ZM359.089 40.5349V34.3981H365.721V40.5349H359.089ZM359.089 69V43.9337H365.721V69H359.089ZM393.432 51.345L386.894 52.5251C386.674 51.2191 386.17 50.2357 385.383 49.5748C384.612 48.9139 383.605 48.5835 382.362 48.5835C380.71 48.5835 379.388 49.1578 378.397 50.3065C377.421 51.4394 376.933 53.3434 376.933 56.0184C376.933 58.9924 377.429 61.093 378.42 62.3204C379.427 63.5477 380.773 64.1614 382.456 64.1614C383.715 64.1614 384.746 63.8074 385.548 63.0993C386.351 62.3754 386.917 61.1402 387.248 59.3936L393.762 60.5029C393.086 63.4926 391.788 65.7507 389.868 67.277C387.948 68.8033 385.375 69.5665 382.15 69.5665C378.483 69.5665 375.557 68.4099 373.369 66.0968C371.198 63.7838 370.112 60.5816 370.112 56.4904C370.112 52.3521 371.206 49.1342 373.393 46.8368C375.58 44.5238 378.538 43.3672 382.268 43.3672C385.32 43.3672 387.744 44.0281 389.537 45.3499C391.347 46.6559 392.645 48.6543 393.432 51.345ZM404.125 34.3981V47.1201C406.265 44.6182 408.822 43.3672 411.796 43.3672C413.322 43.3672 414.699 43.6504 415.926 44.2169C417.154 44.7834 418.074 45.5072 418.688 46.3884C419.317 47.2696 419.742 48.2451 419.963 49.3151C420.199 50.3851 420.317 52.0452 420.317 54.2954V69H413.684V55.7588C413.684 53.131 413.558 51.463 413.306 50.7549C413.055 50.0468 412.606 49.4882 411.961 49.0791C411.332 48.6543 410.537 48.4418 409.577 48.4418C408.476 48.4418 407.492 48.7093 406.627 49.2443C405.761 49.7793 405.124 50.5897 404.715 51.6754C404.322 52.7454 404.125 54.3347 404.125 56.4432V69H397.493V34.3981H404.125ZM424.566 56.1128C424.566 53.9099 425.109 51.7777 426.195 49.7164C427.28 47.6551 428.815 46.0815 430.797 44.9958C432.796 43.9101 435.022 43.3672 437.477 43.3672C441.269 43.3672 444.377 44.6024 446.8 47.0729C449.223 49.5276 450.435 52.6353 450.435 56.396C450.435 60.1882 449.207 63.3353 446.753 65.8372C444.314 68.3234 441.238 69.5665 437.524 69.5665C435.227 69.5665 433.032 69.0472 430.939 68.0087C428.862 66.9701 427.28 65.4517 426.195 63.4533C425.109 61.4392 424.566 58.9924 424.566 56.1128ZM431.364 56.4668C431.364 58.953 431.954 60.857 433.134 62.1788C434.314 63.5005 435.77 64.1614 437.5 64.1614C439.231 64.1614 440.679 63.5005 441.843 62.1788C443.024 60.857 443.614 58.9373 443.614 56.4196C443.614 53.9649 443.024 52.0767 441.843 50.7549C440.679 49.4332 439.231 48.7723 437.5 48.7723C435.77 48.7723 434.314 49.4332 433.134 50.7549C431.954 52.0767 431.364 53.9807 431.364 56.4668Z" fill="black"/>
</svg>
