<svg width="747" height="108" viewBox="0 0 747 108" fill="none" xmlns="http://www.w3.org/2000/svg">
<rect width="747" height="108" fill="#DE7D02"/>
<path d="M266.389 40.8182H271.861V59.0739C271.861 60.7614 271.481 62.2273 270.723 63.4716C269.973 64.7159 268.929 65.6747 267.591 66.348C266.253 67.0213 264.697 67.358 262.925 67.358C261.348 67.358 259.916 67.081 258.629 66.527C257.351 65.9645 256.337 65.1122 255.587 63.9702C254.837 62.8196 254.466 61.375 254.474 59.6364H259.984C260.001 60.3267 260.142 60.919 260.406 61.4134C260.679 61.8991 261.05 62.2741 261.518 62.5384C261.996 62.794 262.558 62.9219 263.206 62.9219C263.888 62.9219 264.463 62.777 264.932 62.4872C265.409 62.1889 265.771 61.7543 266.018 61.1832C266.265 60.6122 266.389 59.9091 266.389 59.0739V40.8182ZM284.487 67.3835C282.501 67.3835 280.784 66.9616 279.335 66.1179C277.895 65.2656 276.783 64.081 275.999 62.5639C275.215 61.0384 274.822 59.2699 274.822 57.2585C274.822 55.2301 275.215 53.4574 275.999 51.9403C276.783 50.4148 277.895 49.2301 279.335 48.3864C280.784 47.5341 282.501 47.108 284.487 47.108C286.473 47.108 288.186 47.5341 289.626 48.3864C291.075 49.2301 292.192 50.4148 292.976 51.9403C293.76 53.4574 294.152 55.2301 294.152 57.2585C294.152 59.2699 293.76 61.0384 292.976 62.5639C292.192 64.081 291.075 65.2656 289.626 66.1179C288.186 66.9616 286.473 67.3835 284.487 67.3835ZM284.513 63.1648C285.416 63.1648 286.17 62.9091 286.776 62.3977C287.381 61.8778 287.837 61.1705 288.144 60.2756C288.459 59.3807 288.617 58.3622 288.617 57.2202C288.617 56.0781 288.459 55.0597 288.144 54.1648C287.837 53.2699 287.381 52.5625 286.776 52.0426C286.17 51.5227 285.416 51.2628 284.513 51.2628C283.601 51.2628 282.834 51.5227 282.212 52.0426C281.598 52.5625 281.134 53.2699 280.818 54.1648C280.511 55.0597 280.358 56.0781 280.358 57.2202C280.358 58.3622 280.511 59.3807 280.818 60.2756C281.134 61.1705 281.598 61.8778 282.212 62.3977C282.834 62.9091 283.601 63.1648 284.513 63.1648ZM305.82 74.7727C304.056 74.7727 302.543 74.5298 301.281 74.044C300.029 73.5668 299.031 72.9148 298.29 72.0881C297.549 71.2614 297.067 70.3324 296.845 69.3011L301.882 68.6236C302.036 69.0156 302.279 69.3821 302.611 69.723C302.943 70.0639 303.382 70.3366 303.928 70.5412C304.482 70.7543 305.155 70.8608 305.948 70.8608C307.132 70.8608 308.108 70.571 308.875 69.9915C309.651 69.4205 310.039 68.4616 310.039 67.1151V63.5227H309.808C309.57 64.0682 309.212 64.5838 308.735 65.0696C308.257 65.5554 307.644 65.9517 306.894 66.2585C306.144 66.5653 305.249 66.7188 304.209 66.7188C302.735 66.7188 301.392 66.3778 300.182 65.696C298.98 65.0057 298.022 63.9531 297.306 62.5384C296.598 61.1151 296.245 59.3168 296.245 57.1435C296.245 54.919 296.607 53.0611 297.331 51.5696C298.056 50.0781 299.019 48.9616 300.22 48.2202C301.431 47.4787 302.756 47.108 304.196 47.108C305.296 47.108 306.216 47.2955 306.958 47.6705C307.699 48.0369 308.296 48.4972 308.747 49.0511C309.208 49.5966 309.561 50.1335 309.808 50.6619H310.013V47.3636H315.421V67.1918C315.421 68.8622 315.012 70.2599 314.193 71.3849C313.375 72.5099 312.242 73.3537 310.793 73.9162C309.352 74.4872 307.695 74.7727 305.82 74.7727ZM305.935 62.6278C306.813 62.6278 307.554 62.4105 308.159 61.9759C308.773 61.5327 309.242 60.902 309.566 60.0838C309.898 59.2571 310.064 58.2685 310.064 57.1179C310.064 55.9673 309.902 54.9702 309.578 54.1264C309.254 53.2741 308.786 52.6136 308.172 52.1449C307.558 51.6761 306.813 51.4418 305.935 51.4418C305.04 51.4418 304.286 51.6847 303.672 52.1705C303.058 52.6477 302.594 53.3125 302.279 54.1648C301.963 55.017 301.806 56.0014 301.806 57.1179C301.806 58.2514 301.963 59.2315 302.279 60.0582C302.602 60.8764 303.067 61.5114 303.672 61.9631C304.286 62.4062 305.04 62.6278 305.935 62.6278ZM327.907 67.3835C325.921 67.3835 324.204 66.9616 322.755 66.1179C321.314 65.2656 320.202 64.081 319.418 62.5639C318.634 61.0384 318.242 59.2699 318.242 57.2585C318.242 55.2301 318.634 53.4574 319.418 51.9403C320.202 50.4148 321.314 49.2301 322.755 48.3864C324.204 47.5341 325.921 47.108 327.907 47.108C329.892 47.108 331.605 47.5341 333.046 48.3864C334.495 49.2301 335.611 50.4148 336.395 51.9403C337.179 53.4574 337.571 55.2301 337.571 57.2585C337.571 59.2699 337.179 61.0384 336.395 62.5639C335.611 64.081 334.495 65.2656 333.046 66.1179C331.605 66.9616 329.892 67.3835 327.907 67.3835ZM327.932 63.1648C328.836 63.1648 329.59 62.9091 330.195 62.3977C330.8 61.8778 331.256 61.1705 331.563 60.2756C331.878 59.3807 332.036 58.3622 332.036 57.2202C332.036 56.0781 331.878 55.0597 331.563 54.1648C331.256 53.2699 330.8 52.5625 330.195 52.0426C329.59 51.5227 328.836 51.2628 327.932 51.2628C327.02 51.2628 326.253 51.5227 325.631 52.0426C325.017 52.5625 324.553 53.2699 324.238 54.1648C323.931 55.0597 323.777 56.0781 323.777 57.2202C323.777 58.3622 323.931 59.3807 324.238 60.2756C324.553 61.1705 325.017 61.8778 325.631 62.3977C326.253 62.9091 327.02 63.1648 327.932 63.1648ZM355.24 67.3196C353.749 67.3196 352.398 66.9361 351.188 66.169C349.986 65.3935 349.032 64.2557 348.324 62.7557C347.625 61.2472 347.276 59.3977 347.276 57.2074C347.276 54.9574 347.638 53.0866 348.363 51.5952C349.087 50.0952 350.05 48.9744 351.252 48.233C352.462 47.483 353.787 47.108 355.228 47.108C356.327 47.108 357.243 47.2955 357.976 47.6705C358.718 48.0369 359.314 48.4972 359.766 49.0511C360.226 49.5966 360.576 50.1335 360.814 50.6619H360.98V40.8182H366.414V67H361.044V63.8551H360.814C360.559 64.4006 360.196 64.9418 359.728 65.4787C359.267 66.0071 358.667 66.446 357.925 66.7955C357.192 67.1449 356.297 67.3196 355.24 67.3196ZM356.966 62.9858C357.844 62.9858 358.586 62.7472 359.191 62.2699C359.804 61.7841 360.273 61.1065 360.597 60.2372C360.929 59.3679 361.096 58.3494 361.096 57.1818C361.096 56.0142 360.934 55 360.61 54.1392C360.286 53.2784 359.817 52.6136 359.203 52.1449C358.59 51.6761 357.844 51.4418 356.966 51.4418C356.071 51.4418 355.317 51.6847 354.703 52.1705C354.09 52.6562 353.625 53.3295 353.31 54.1903C352.995 55.0511 352.837 56.0483 352.837 57.1818C352.837 58.3239 352.995 59.3338 353.31 60.2116C353.634 61.081 354.098 61.7628 354.703 62.2571C355.317 62.7429 356.071 62.9858 356.966 62.9858ZM379.044 67.3835C377.058 67.3835 375.34 66.9616 373.892 66.1179C372.451 65.2656 371.339 64.081 370.555 62.5639C369.771 61.0384 369.379 59.2699 369.379 57.2585C369.379 55.2301 369.771 53.4574 370.555 51.9403C371.339 50.4148 372.451 49.2301 373.892 48.3864C375.34 47.5341 377.058 47.108 379.044 47.108C381.029 47.108 382.742 47.5341 384.183 48.3864C385.632 49.2301 386.748 50.4148 387.532 51.9403C388.316 53.4574 388.708 55.2301 388.708 57.2585C388.708 59.2699 388.316 61.0384 387.532 62.5639C386.748 64.081 385.632 65.2656 384.183 66.1179C382.742 66.9616 381.029 67.3835 379.044 67.3835ZM379.069 63.1648C379.972 63.1648 380.727 62.9091 381.332 62.3977C381.937 61.8778 382.393 61.1705 382.7 60.2756C383.015 59.3807 383.173 58.3622 383.173 57.2202C383.173 56.0781 383.015 55.0597 382.7 54.1648C382.393 53.2699 381.937 52.5625 381.332 52.0426C380.727 51.5227 379.972 51.2628 379.069 51.2628C378.157 51.2628 377.39 51.5227 376.768 52.0426C376.154 52.5625 375.69 53.2699 375.374 54.1648C375.068 55.0597 374.914 56.0781 374.914 57.2202C374.914 58.3622 375.068 59.3807 375.374 60.2756C375.69 61.1705 376.154 61.8778 376.768 62.3977C377.39 62.9091 378.157 63.1648 379.069 63.1648ZM399.244 67V40.8182H409.727C411.653 40.8182 413.259 41.1037 414.546 41.6747C415.833 42.2457 416.801 43.0384 417.448 44.0526C418.096 45.0582 418.42 46.2173 418.42 47.5298C418.42 48.5526 418.215 49.4517 417.806 50.2273C417.397 50.9943 416.835 51.625 416.119 52.1193C415.411 52.6051 414.602 52.9503 413.69 53.1548V53.4105C414.687 53.4531 415.62 53.7344 416.49 54.2543C417.367 54.7741 418.079 55.5028 418.624 56.4403C419.17 57.3693 419.443 58.4773 419.443 59.7642C419.443 61.1534 419.097 62.3935 418.407 63.4844C417.725 64.5668 416.715 65.4233 415.377 66.054C414.039 66.6847 412.39 67 410.43 67H399.244ZM404.779 62.4744H409.292C410.835 62.4744 411.96 62.1804 412.667 61.5923C413.374 60.9957 413.728 60.2031 413.728 59.2145C413.728 58.4901 413.553 57.8509 413.204 57.2969C412.855 56.7429 412.356 56.3082 411.708 55.9929C411.069 55.6776 410.306 55.5199 409.42 55.5199H404.779V62.4744ZM404.779 51.7741H408.883C409.641 51.7741 410.315 51.642 410.903 51.3778C411.499 51.1051 411.968 50.7216 412.309 50.2273C412.659 49.733 412.833 49.1406 412.833 48.4503C412.833 47.5043 412.497 46.7415 411.823 46.1619C411.159 45.5824 410.213 45.2926 408.985 45.2926H404.779V51.7741ZM422.222 67V47.3636H427.668V67H422.222ZM424.958 44.8324C424.148 44.8324 423.454 44.5639 422.874 44.027C422.303 43.4815 422.018 42.8295 422.018 42.071C422.018 41.321 422.303 40.6776 422.874 40.1406C423.454 39.5952 424.148 39.3224 424.958 39.3224C425.768 39.3224 426.458 39.5952 427.029 40.1406C427.609 40.6776 427.898 41.321 427.898 42.071C427.898 42.8295 427.609 43.4815 427.029 44.027C426.458 44.5639 425.768 44.8324 424.958 44.8324ZM440.183 67.3835C438.172 67.3835 436.442 66.9574 434.993 66.1051C433.552 65.2443 432.444 64.0511 431.669 62.5256C430.902 61 430.518 59.2443 430.518 57.2585C430.518 55.2472 430.906 53.483 431.682 51.9659C432.466 50.4403 433.578 49.2514 435.018 48.3991C436.459 47.5384 438.172 47.108 440.157 47.108C441.871 47.108 443.371 47.419 444.657 48.0412C445.944 48.6634 446.963 49.5369 447.713 50.6619C448.463 51.7869 448.876 53.108 448.953 54.625H443.814C443.669 53.6449 443.285 52.8565 442.663 52.2599C442.05 51.6548 441.244 51.3523 440.247 51.3523C439.403 51.3523 438.666 51.5824 438.035 52.0426C437.413 52.4943 436.927 53.1548 436.578 54.0241C436.228 54.8935 436.054 55.946 436.054 57.1818C436.054 58.4347 436.224 59.5 436.565 60.3778C436.915 61.2557 437.405 61.9247 438.035 62.3849C438.666 62.8452 439.403 63.0753 440.247 63.0753C440.869 63.0753 441.427 62.9474 441.922 62.6918C442.425 62.4361 442.838 62.0653 443.162 61.5795C443.494 61.0852 443.711 60.4929 443.814 59.8026H448.953C448.868 61.3026 448.459 62.6236 447.726 63.7656C447.001 64.8991 446 65.7855 444.721 66.4247C443.443 67.0639 441.93 67.3835 440.183 67.3835ZM457.166 55.6477V67H451.72V40.8182H457.012V50.8281H457.243C457.686 49.669 458.402 48.7614 459.39 48.1051C460.379 47.4403 461.619 47.108 463.11 47.108C464.474 47.108 465.663 47.4062 466.677 48.0028C467.7 48.5909 468.493 49.4389 469.055 50.5469C469.626 51.6463 469.907 52.9631 469.899 54.4972V67H464.453V55.4688C464.461 54.2585 464.154 53.3168 463.532 52.6435C462.919 51.9702 462.058 51.6335 460.95 51.6335C460.208 51.6335 459.552 51.7912 458.981 52.1065C458.419 52.4219 457.975 52.8821 457.652 53.4872C457.336 54.0838 457.174 54.804 457.166 55.6477ZM482.337 67.3835C480.351 67.3835 478.634 66.9616 477.185 66.1179C475.744 65.2656 474.632 64.081 473.848 62.5639C473.064 61.0384 472.672 59.2699 472.672 57.2585C472.672 55.2301 473.064 53.4574 473.848 51.9403C474.632 50.4148 475.744 49.2301 477.185 48.3864C478.634 47.5341 480.351 47.108 482.337 47.108C484.323 47.108 486.036 47.5341 487.476 48.3864C488.925 49.2301 490.041 50.4148 490.825 51.9403C491.61 53.4574 492.002 55.2301 492.002 57.2585C492.002 59.2699 491.61 61.0384 490.825 62.5639C490.041 64.081 488.925 65.2656 487.476 66.1179C486.036 66.9616 484.323 67.3835 482.337 67.3835ZM482.362 63.1648C483.266 63.1648 484.02 62.9091 484.625 62.3977C485.23 61.8778 485.686 61.1705 485.993 60.2756C486.308 59.3807 486.466 58.3622 486.466 57.2202C486.466 56.0781 486.308 55.0597 485.993 54.1648C485.686 53.2699 485.23 52.5625 484.625 52.0426C484.02 51.5227 483.266 51.2628 482.362 51.2628C481.45 51.2628 480.683 51.5227 480.061 52.0426C479.448 52.5625 478.983 53.2699 478.668 54.1648C478.361 55.0597 478.208 56.0781 478.208 57.2202C478.208 58.3622 478.361 59.3807 478.668 60.2756C478.983 61.1705 479.448 61.8778 480.061 62.3977C480.683 62.9091 481.45 63.1648 482.362 63.1648Z" fill="black"/>
</svg>
